<svg xmlns="http://www.w3.org/2000/svg" viewBox="0 0 512 512" width="512" height="512" xmlns:c2pa="http://c2pa.org/manifest"><metadata><c2pa:manifest>AAAWgmp1bWIAAAAeanVtZGMycGEAEQAQgAAAqgA4m3EDYzJwYQAAABZcanVtYgAAAEdqdW1kYzJtYQARABCAAACqADibcQN1cm46YzJwYTowYjUwZWU1MS1kMDIxLTQ4YjAtOTg5Zi00ZjA4Njg4MzdhMGMAAAADl2p1bWIAAAApanVtZGMyYXMAEQAQgAAAqgA4m3EDYzJwYS5hc3NlcnRpb25zAAAAALxqdW1iAAAARGp1bWRjYm9yABEAEIAAAKoAOJtxE2MycGEuaW5ncmVkaWVudC52MwAAAAAYYzJzaFtZXE3CnBIXH6O9q/K+3RwAAABwY2JvcqNpZGM6Zm9ybWF0bWltYWdlL3N2Zyt4bWxqaW5zdGFuY2VJRHgseG1wOmlpZDo5YzFkZmFlYy0yZTA5LTQyMjgtOTZlYy0yMDBhZmQwMDI2N2JscmVsYXRpb25zaGlwaHBhcmVudE9mAAAB4mp1bWIAAABBanVtZGNib3IAEQAQgAAAqgA4m3ETYzJwYS5hY3Rpb25zLnYyAAAAABhjMnNoxawqWD9fuNt5oTSZpL6EOQAAAZljYm9yomdhY3Rpb25zgqJmYWN0aW9ua2MycGEub3BlbmVkanBhcmFtZXRlcnOha2luZ3JlZGllbnRzgaJjdXJseC1zZWxmI2p1bWJmPWMycGEuYXNzZXJ0aW9ucy9jMnBhLmluZ3JlZGllbnQudjNkaGFzaFgg9OQdsB/28/8CRBw+0B90tBSkDQYyHQU384pMCTszLqqkZmFjdGlvbngdY29tLmFudGhyb3BpYy5jbGF1ZGUucHJvdmlkZWRqcGFyYW1ldGVyc6F4H2NvbS5hbnRocm9waWMub3JpZ2luLWNvbmZpZGVuY2VndW5rbm93bmtkZXNjcmlwdGlvbnhmQ2xhdWRlIHByb3ZpZGVkIHRoaXMgZmlsZSBhdCB0aGUgcmVxdWVzdCBvZiBhIHVzZXIgYW5kIG1heSBoYXZlIGNyZWF0ZWQgb3IgbW9kaWZpZWQgdGhlIGZpbGUgY29udGVudHMubXNvZnR3YXJlQWdlbnShZG5hbWVmQ2xhdWRlcmFsbEFjdGlvbnNJbmNsdWRlZPUAAADIanVtYgAAAEBqdW1kY2JvcgARABCAAACqADibcRNjMnBhLmhhc2guZGF0YQAAAAAYYzJzaFfG8OMp8zI39SeRzjOWBuwAAACAY2JvcqVjYWxnZnNoYTI1NmNwYWRNAAAAAAAAAAAAAAAAAGRoYXNoWCCKokfc/XNaAWxoHuY1ChWyqNXs7kr+h+JWnPMANi5Ti2RuYW1lbmp1bWJmIG1hbmlmZXN0amV4Y2x1c2lvbnOBomVzdGFydBiWZmxlbmd0aBkeBAAAAj5qdW1iAAAAJ2p1bWRjMmNsABEAEIAAAKoAOJtxA2MycGEuY2xhaW0udjIAAAACD2Nib3KlY2FsZ2ZzaGEyNTZpc2lnbmF0dXJleE1zZWxmI2p1bWJmPS9jMnBhL3VybjpjMnBhOjBiNTBlZTUxLWQwMjEtNDhiMC05ODlmLTRmMDg2ODgzN2EwYy9jMnBhLnNpZ25hdHVyZWppbnN0YW5jZUlEeCx4bXA6aWlkOjIxZjc1ZjE1LTA5YWUtNDljYS05YWM1LWZlMjljZDhlMGQ3M3JjcmVhdGVkX2Fzc2VydGlvbnODomN1cmx4LXNlbGYjanVtYmY9YzJwYS5hc3NlcnRpb25zL2MycGEuaW5ncmVkaWVudC52M2RoYXNoWCD05B2wH/bz/wJEHD7QH3S0FKQNBjIdBTfzikwJOzMuqqJjdXJseCpzZWxmI2p1bWJmPWMycGEuYXNzZXJ0aW9ucy9jMnBhLmFjdGlvbnMudjJkaGFzaFggUY0jJHUiNgDCKi5KUebxaSWey6txv5gq838XEMY+tHKiY3VybHgpc2VsZiNqdW1iZj1jMnBhLmFzc2VydGlvbnMvYzJwYS5oYXNoLmRhdGFkaGFzaFggX6uLukgiK6c8Ws0hOOy5baJU8PSSf0L4OX/MgrnkSEF0Y2xhaW1fZ2VuZXJhdG9yX2luZm+jZG5hbWVvQW50aHJvcGljIEZpbGVzZ3ZlcnNpb25lMS4wLjBrc3BlY1ZlcnNpb25lMi40LjAAABA4anVtYgAAAChqdW1kYzJjcwARABCAAACqADibcQNjMnBhLnNpZ25hdHVyZQAAABAIY2JvctKEWQISogEmGCFZAgowggIGMIIBjaADAgECAhRA5aAK7sI50L64g/oGQgU9Z1UTADAKBggqhkjOPQQDAzBJMRcwFQYDVQQKEw5BbnRocm9waWMsIFBCQzEuMCwGA1UEAxMlQW50aHJvcGljIENvbnRlbnQgQ3JlZGVudGlhbHMgUm9vdCBDQTAeFw0yNjA4MDcxODQzNTZaFw0yODA4MDYxOTQzNTZaMEQxFzAVBgNVBAoTDkFudGhyb3BpYywgUEJDMSkwJwYDVQQDEyBBbnRocm9waWMgQ2xhdWRlIENvbnRlbnQgU2lnbmluZzBZMBMGByqGSM49AgEGCCqGSM49AwEHA0IABJh6CmvLUBgFFNU0vUKlOVtE6djd17L5SuwX0LemFisBM3dkd/3cyjxFA3Qo5S46fX0/ihY0VZ7mfb9KF703t5OjWDBWMA4GA1UdDwEB/wQEAwIHgDAVBgNVHSUEDjAMBgorBgEEAYPoXgIBMAwGA1UdEwEB/wQCMAAwHwYDVR0jBBgwFoAUzlHiBIFOZFsj+OPEz5o+nMHXXMIwCgYIKoZIzj0EAwMDZwAwZAIwMXMdFJ4BetLLVY7ORuE9noqbbAZOZn/aArXyTwFAZfKrPzxF2vPoJNf1+UCdg1XGAjBwX1zd9WGqYkqmL5SFqw1QySjr1zJfpJM9+1rdDwSPLMOPOjKuiXjoU/pUUeG9RwmhY3BhZFkNngAAAAAAAAAAAAAAAAAAAAAAAAAAAAAAAAAAAAAAAAAAAAAAAAAAAAAAAAAAAAAAAAAAAAAAAAAAAAAAAAAAAAAAAAAAAAAAAAAAAAAAAAAAAAAAAAAAAAAAAAAAAAAAAAAAAAAAAAAAAAAAAAAAAAAAAAAAAAAAAAAAAAAAAAAAAAAAAAAAAAAAAAAAAAAAAAAAAAAAAAAAAAAAAAAAAAAAAAAAAAAAAAAAAAAAAAAAAAAAAAAAAAAAAAAAAAAAAAAAAAAAAAAAAAAAAAAAAAAAAAAAAAAAAAAAAAAAAAAAAAAAAAAAAAAAAAAAAAAAAAAAAAAAAAAAAAAAAAAAAAAAAAAAAAAAAAAAAAAAAAAAAAAAAAAAAAAAAAAAAAAAAAAAAAAAAAAAAAAAAAAAAAAAAAAAAAAAAAAAAAAAAAAAAAAAAAAAAAAAAAAAAAAAAAAAAAAAAAAAAAAAAAAAAAAAAAAAAAAAAAAAAAAAAAAAAAAAAAAAAAAAAAAAAAAAAAAAAAAAAAAAAAAAAAAAAAAAAAAAAAAAAAAAAAAAAAAAAAAAAAAAAAAAAAAAAAAAAAAAAAAAAAAAAAAAAAAAAAAAAAAAAAAAAAAAAAAAAAAAAAAAAAAAAAAAAAAAAAAAAAAAAAAAAAAAAAAAAAAAAAAAAAAAAAAAAAAAAAAAAAAAAAAAAAAAAAAAAAAAAAAAAAAAAAAAAAAAAAAAAAAAAAAAAAAAAAAAAAAAAAAAAAAAAAAAAAAAAAAAAAAAAAAAAAAAAAAAAAAAAAAAAAAAAAAAAAAAAAAAAAAAAAAAAAAAAAAAAAAAAAAAAAAAAAAAAAAAAAAAAAAAAAAAAAAAAAAAAAAAAAAAAAAAAAAAAAAAAAAAAAAAAAAAAAAAAAAAAAAAAAAAAAAAAAAAAAAAAAAAAAAAAAAAAAAAAAAAAAAAAAAAAAAAAAAAAAAAAAAAAAAAAAAAAAAAAAAAAAAAAAAAAAAAAAAAAAAAAAAAAAAAAAAAAAAAAAAAAAAAAAAAAAAAAAAAAAAAAAAAAAAAAAAAAAAAAAAAAAAAAAAAAAAAAAAAAAAAAAAAAAAAAAAAAAAAAAAAAAAAAAAAAAAAAAAAAAAAAAAAAAAAAAAAAAAAAAAAAAAAAAAAAAAAAAAAAAAAAAAAAAAAAAAAAAAAAAAAAAAAAAAAAAAAAAAAAAAAAAAAAAAAAAAAAAAAAAAAAAAAAAAAAAAAAAAAAAAAAAAAAAAAAAAAAAAAAAAAAAAAAAAAAAAAAAAAAAAAAAAAAAAAAAAAAAAAAAAAAAAAAAAAAAAAAAAAAAAAAAAAAAAAAAAAAAAAAAAAAAAAAAAAAAAAAAAAAAAAAAAAAAAAAAAAAAAAAAAAAAAAAAAAAAAAAAAAAAAAAAAAAAAAAAAAAAAAAAAAAAAAAAAAAAAAAAAAAAAAAAAAAAAAAAAAAAAAAAAAAAAAAAAAAAAAAAAAAAAAAAAAAAAAAAAAAAAAAAAAAAAAAAAAAAAAAAAAAAAAAAAAAAAAAAAAAAAAAAAAAAAAAAAAAAAAAAAAAAAAAAAAAAAAAAAAAAAAAAAAAAAAAAAAAAAAAAAAAAAAAAAAAAAAAAAAAAAAAAAAAAAAAAAAAAAAAAAAAAAAAAAAAAAAAAAAAAAAAAAAAAAAAAAAAAAAAAAAAAAAAAAAAAAAAAAAAAAAAAAAAAAAAAAAAAAAAAAAAAAAAAAAAAAAAAAAAAAAAAAAAAAAAAAAAAAAAAAAAAAAAAAAAAAAAAAAAAAAAAAAAAAAAAAAAAAAAAAAAAAAAAAAAAAAAAAAAAAAAAAAAAAAAAAAAAAAAAAAAAAAAAAAAAAAAAAAAAAAAAAAAAAAAAAAAAAAAAAAAAAAAAAAAAAAAAAAAAAAAAAAAAAAAAAAAAAAAAAAAAAAAAAAAAAAAAAAAAAAAAAAAAAAAAAAAAAAAAAAAAAAAAAAAAAAAAAAAAAAAAAAAAAAAAAAAAAAAAAAAAAAAAAAAAAAAAAAAAAAAAAAAAAAAAAAAAAAAAAAAAAAAAAAAAAAAAAAAAAAAAAAAAAAAAAAAAAAAAAAAAAAAAAAAAAAAAAAAAAAAAAAAAAAAAAAAAAAAAAAAAAAAAAAAAAAAAAAAAAAAAAAAAAAAAAAAAAAAAAAAAAAAAAAAAAAAAAAAAAAAAAAAAAAAAAAAAAAAAAAAAAAAAAAAAAAAAAAAAAAAAAAAAAAAAAAAAAAAAAAAAAAAAAAAAAAAAAAAAAAAAAAAAAAAAAAAAAAAAAAAAAAAAAAAAAAAAAAAAAAAAAAAAAAAAAAAAAAAAAAAAAAAAAAAAAAAAAAAAAAAAAAAAAAAAAAAAAAAAAAAAAAAAAAAAAAAAAAAAAAAAAAAAAAAAAAAAAAAAAAAAAAAAAAAAAAAAAAAAAAAAAAAAAAAAAAAAAAAAAAAAAAAAAAAAAAAAAAAAAAAAAAAAAAAAAAAAAAAAAAAAAAAAAAAAAAAAAAAAAAAAAAAAAAAAAAAAAAAAAAAAAAAAAAAAAAAAAAAAAAAAAAAAAAAAAAAAAAAAAAAAAAAAAAAAAAAAAAAAAAAAAAAAAAAAAAAAAAAAAAAAAAAAAAAAAAAAAAAAAAAAAAAAAAAAAAAAAAAAAAAAAAAAAAAAAAAAAAAAAAAAAAAAAAAAAAAAAAAAAAAAAAAAAAAAAAAAAAAAAAAAAAAAAAAAAAAAAAAAAAAAAAAAAAAAAAAAAAAAAAAAAAAAAAAAAAAAAAAAAAAAAAAAAAAAAAAAAAAAAAAAAAAAAAAAAAAAAAAAAAAAAAAAAAAAAAAAAAAAAAAAAAAAAAAAAAAAAAAAAAAAAAAAAAAAAAAAAAAAAAAAAAAAAAAAAAAAAAAAAAAAAAAAAAAAAAAAAAAAAAAAAAAAAAAAAAAAAAAAAAAAAAAAAAAAAAAAAAAAAAAAAAAAAAAAAAAAAAAAAAAAAAAAAAAAAAAAAAAAAAAAAAAAAAAAAAAAAAAAAAAAAAAAAAAAAAAAAAAAAAAAAAAAAAAAAAAAAAAAAAAAAAAAAAAAAAAAAAAAAAAAAAAAAAAAAAAAAAAAAAAAAAAAAAAAAAAAAAAAAAAAAAAAAAAAAAAAAAAAAAAAAAAAAAAAAAAAAAAAAAAAAAAAAAAAAAAAAAAAAAAAAAAAAAAAAAAAAAAAAAAAAAAAAAAAAAAAAAAAAAAAAAAAAAAAAAAAAAAAAAAAAAAAAAAAAAAAAAAAAAAAAAAAAAAAAAAAAAAAAAAAAAAAAAAAAAAAAAAAAAAAAAAAAAAAAAAAAAAAAAAAAAAAAAAAAAAAAAAAAAAAAAAAAAAAAAAAAAAAAAAAAAAAAAAAAAAAAAAAAAAAAAAAAAAAAAAAAAAAAAAAAAAAAAAAAAAAAAAAAAAAAAAAAAAAAAAAAAAAAAAAAAAAAAAAAAAAAAAAAAAAAAAAAAAAAAAAAAAAAAAAAAAAAAAAAAAAAAAAAAAAAAAAAAAAAAAAAAAAAAAAAAAAAAAAAAAAAAAAAAAAAAAAAAAAAAAAAAAAAAAAAAAAAAAAAAAAAAAAAAAAAAAAAAAAAAAAAAAAAAAAAAAAAAAAAAAAAAAAAAAAAAAAAAAAAAAAAAAAAAAAAAAAAAAAAAAAAAAAAAAAAAAAAAAAAAAAAAAAAAAAAAAAAAAAAAAAAAAAAAAAAAAAAAAAAAAAAAAAAAAAAAAAAAAAAAAAAAAAAAAAAAAAAAAAAAAAAAAAAAAAAAAAAAAAAAAAAAAAAAAAAAAAAAAAAAAAAAAAAAAAAAAAAAAAAAAAAAAAAAAAAAAAAAAAAAAAAAAAAAAAAAAAAAAAAAAAAAAAAAAAAAAAAAAAAAAAAAAAAAAAAAAAAAAAAAAAAAAAAAAAAAAAAAAAAAAAAAAAAAAAAAAAAAAAAAAAAAAAAAAAAAAAAAAAAAAAAAAAAAAAAAAAAAAAAAAAAAAAAAAAAAAAAAAAAAAAAAAAAAAAAAAAAAAAAAAAAAAAAAAAAAAAAAAAAAAAAAAAAAAAAAAAAAAAAAAAAAAAAAAAAAAAAAAAAAAAAAAAAAAAAAAAAAAAAAAAAAAAAAAAAAAAAAAAAAAAAAAAAAAAAAAAAAAAAAAAAAAAAAAAAAAAAAAAAAAAAAAAAAAAAAAAAAAAAAAAAAAAAAAAAAAAAAAAAAAAAAAAAAAAAAAAAAAAAAAAAAAAAAAAAAAAAAAAAAAAAAAAAAAAAAAAAAAAAAAAAAAAAAAAAAAAAAAAAAAAAAAAAAAAAAAAAAAAAAAAAAAAAAAAAAAAAAAAAAAAAAAAAAAAAAAAAAAAAAAAAAAAAAAAAAAAAAAAAAAAAAAAAAAAAAAAAAAAAAAAAAAAAAAAAAAAAAAAAAAAAAAAAAAAAAAAAAAAAAAAAAAAAAAAAAAAAAAAAAAAAAAAAAAAAAAAAAAAAAAAAAAAAAAAAAAAAAAAAAAAAAAAAAAAAAAAAAAAAAAAAAAAAAAAAAAAAAAAAAAAAAAAAAAAAAAAAAAAAAAAAAAAAAAAAAAAAAAAAAAAAAAAAAAAAAAAAAAAAAAAAAAAAAAAAAAAAAAAAAAAAAAAAAAAAAAAAAAAAAAAAAAAAAAAAAAAAAAAAAAAAAAAAAAAAAAAAAAAAAAAAAAAAAAAAAAAAAAAAAAAAAAPZYQN9Ru31+7SWNFfO7SSVpN645hkVWJ37ba2/n/DUlm6TvsoUFOfzoq+G7WUaeGZLBuHZuVdUMhZn9pOJ+gQgNHi4=</c2pa:manifest></metadata><polygon points="256.0,16.0 463.8,136.0 463.8,376.0 256.0,496.0 48.2,376.0 48.2,136.0" fill="#35203F" stroke="#35203F" stroke-width="30" stroke-linejoin="round"/><clipPath id="kec"><polygon points="256.0,41.0 442.2,148.5 442.2,363.5 256.0,471.0 69.8,363.5 69.8,148.5"/></clipPath><g clip-path="url(#kec)"><path d="M391.5 316.6 L625.4 851.0 L321.7 395.6Z" fill="#553052" stroke="#35203F" stroke-width="9" stroke-linejoin="round"/><path d="M391.8 315.1 L391.5 316.6 L321.7 395.6 L196.1 407.9 L216.9 318.5 L271.3 279.9Z" fill="#7A4570" stroke="#35203F" stroke-width="9" stroke-linejoin="round"/><path d="M391.2 193.4 L387.7 197.3 L283.5 181.6 L233.9 116.9 L232.9 104.2 L444.4 71.9Z" fill="#A2628F" stroke="#35203F" stroke-width="9" stroke-linejoin="round"/><path d="M40.7 223.7 L-2264.0 337.7 L-314.6 -1573.6 L185.3 16.6Z" fill="#CF93B5" stroke="#35203F" stroke-width="9" stroke-linejoin="round"/><path d="M321.7 395.6 L196.1 407.9 L172.7 436.1 L-663.3 1889.9 L500.0 2945.7 L1294.8 2107.4 L625.4 851.0Z" fill="#553052" stroke="#35203F" stroke-width="9" stroke-linejoin="round"/><path d="M732.5 270.4 L391.2 193.4 L444.4 71.9 L1646.6 -1005.4 L2698.6 214.7Z" fill="#7A4570" stroke="#35203F" stroke-width="9" stroke-linejoin="round"/><path d="M283.5 181.6 L233.9 116.9 L146.0 226.5 L216.9 318.5 L271.3 279.9Z" fill="#A2628F" stroke="#35203F" stroke-width="9" stroke-linejoin="round"/><path d="M172.7 436.1 L-663.3 1889.9 L-2444.5 500.0 L-2264.0 337.7 L40.7 223.7 L66.9 229.4Z" fill="#CF93B5" stroke="#35203F" stroke-width="9" stroke-linejoin="round"/><path d="M732.5 270.4 L399.9 306.2 L387.7 197.3 L391.2 193.4Z" fill="#553052" stroke="#35203F" stroke-width="9" stroke-linejoin="round"/><path d="M1646.6 -1005.4 L500.0 -2504.8 L-314.6 -1573.6 L185.3 16.6 L232.9 104.2 L444.4 71.9Z" fill="#7A4570" stroke="#35203F" stroke-width="9" stroke-linejoin="round"/><path d="M233.9 116.9 L146.0 226.5 L66.9 229.4 L40.7 223.7 L185.3 16.6 L232.9 104.2Z" fill="#A2628F" stroke="#35203F" stroke-width="9" stroke-linejoin="round"/><path d="M399.9 306.2 L387.7 197.3 L283.5 181.6 L271.3 279.9 L391.8 315.1Z" fill="#CF93B5" stroke="#35203F" stroke-width="9" stroke-linejoin="round"/><path d="M732.5 270.4 L399.9 306.2 L391.8 315.1 L391.5 316.6 L625.4 851.0 L1294.8 2107.4 L2965.7 500.0 L2698.6 214.7Z" fill="#553052" stroke="#35203F" stroke-width="9" stroke-linejoin="round"/><path d="M196.1 407.9 L216.9 318.5 L146.0 226.5 L66.9 229.4 L172.7 436.1Z" fill="#7A4570" stroke="#35203F" stroke-width="9" stroke-linejoin="round"/></g><g transform="translate(262 378) scale(0.9)"><g class="flyhop"><g fill="#35203F" stroke="#35203F" stroke-width="16" stroke-linejoin="round"><ellipse cx="-30.2" cy="-144.9" rx="22" ry="80" transform="rotate(-38 -30.2 -144.9)"/><ellipse cx="-8.5" cy="-162.0" rx="22" ry="86" transform="rotate(-14 -8.5 -162.0)"/><ellipse cx="4" cy="-104" rx="20" ry="14"/><ellipse cx="-40" cy="-68" rx="60" ry="47" transform="rotate(-10 -40 -68)"/><ellipse cx="18" cy="-80" rx="40" ry="35"/><circle cx="66" cy="-84" r="25"/><ellipse cx="-40" cy="-68" rx="69" ry="56" transform="rotate(-10 -40 -68)"/></g><g stroke="#35203F" stroke-width="26"><g fill="none" stroke-linecap="round" stroke-linejoin="round"><polyline points="44,-62 74,-36 84,0"/><polyline points="22,-52 32,-26 24,0"/><polyline points="-2,-54 -30,-32 -46,0"/></g></g><g fill="#F0D08A" stroke="#35203F" stroke-width="10"><ellipse cx="-30.2" cy="-144.9" rx="22" ry="80" transform="rotate(-38 -30.2 -144.9)"/><ellipse cx="-8.5" cy="-162.0" rx="22" ry="86" transform="rotate(-14 -8.5 -162.0)"/></g><g stroke="#D9A441" fill="#D9A441" stroke-width="10"><g fill="none" stroke-linecap="round" stroke-linejoin="round"><polyline points="44,-62 74,-36 84,0"/><polyline points="22,-52 32,-26 24,0"/><polyline points="-2,-54 -30,-32 -46,0"/></g></g><g fill="#D9A441"><ellipse cx="4" cy="-104" rx="20" ry="14"/><ellipse cx="-40" cy="-68" rx="60" ry="47" transform="rotate(-10 -40 -68)"/><ellipse cx="18" cy="-80" rx="40" ry="35"/><circle cx="66" cy="-84" r="25"/></g><clipPath id="abec"><ellipse cx="-40" cy="-68" rx="69" ry="56" transform="rotate(-10 -40 -68)"/></clipPath><g clip-path="url(#abec)" fill="#F2E6C9"><rect x="-84" y="-140" width="17" height="160" rx="8" transform="rotate(-10 -84 -68)"/><rect x="-48" y="-140" width="17" height="160" rx="8" transform="rotate(-10 -48 -68)"/></g><circle cx="72" cy="-87" r="16" fill="#E4473C"/></g></g></svg>